<?xml version="1.0" encoding="utf-8"?>
<svg xmlns="http://www.w3.org/2000/svg" viewBox="0 0 158.7 45" xml:space="preserve">
  <!-- b -->
  <path fill="#FFFFFF" d="M5.3,13.2H2.7V6.6c0-0.7-0.5-1.2-1.1-1.3C1.2,5.2,0.7,5.4,0.4,5.7C0.1,5.9,0,6.3,0,6.6v23.2
    c0,0.7,0.5,1.2,1.1,1.3c0.1,0,0.2,0,0.3,0h3.9c2.9,0,5.3-2.4,5.3-5.2l0-7.5C10.6,15.6,8.2,13.2,5.3,13.2z M7.9,26
    c0,1.4-1.2,2.6-2.6,2.6H2.7l0-12.6l2.6,0c0.1,0,0.3,0,0.4,0c1.2,0.2,2.1,1.3,2.1,2.5V26z"/>
  <!-- o -->
  <path fill="#FFFFFF" d="M19.4,13.1c-1.4,0-2.8,0.5-3.8,1.5c-1,1-1.6,2.3-1.6,3.7v7.8c0,2.6,1.9,4.7,4.4,5.2
    c0.3,0.1,0.6,0.1,0.9,0.1c1.4,0,2.7-0.5,3.7-1.5c1-1,1.6-2.3,1.6-3.7l0-7.8C24.7,15.4,22.3,13.1,19.4,13.1z M19.4,28.7
    c-1.4,0-2.6-1.1-2.6-2.6v-7.8c0-1.4,1.1-2.6,2.6-2.6c0.1,0,0.3,0,0.4,0c1.2,0.2,2.1,1.3,2.1,2.5l0,7.8C22,27.5,20.8,28.7,19.4,28.7z"/>
  <!-- o -->
  <path fill="#FFFFFF" d="M34.5,13.2c-0.3-0.1-0.6-0.1-0.9-0.1c-2.9,0-5.3,2.4-5.3,5.2v7.8c0,2.6,1.9,4.7,4.4,5.2
    c0.3,0.1,0.6,0.1,0.9,0.1c1.4,0,2.7-0.5,3.7-1.5c1-1,1.6-2.3,1.6-3.7v-7.8C38.8,15.8,37,13.6,34.5,13.2z M36.1,26.1
    c0,0.7-0.3,1.3-0.8,1.8c-0.5,0.5-1.1,0.7-1.8,0.7c-1.4,0-2.6-1.1-2.6-2.6v-7.8c0-1.4,1.1-2.6,2.6-2.6c0.1,0,0.3,0,0.4,0
    c1.2,0.2,2.1,1.3,2.1,2.5V26.1z"/>
  <!-- k -->
  <path fill="#FFFFFF" d="M53.3,13.4c-0.2-0.2-0.4-0.3-0.7-0.3c-0.5-0.1-0.9,0.1-1.3,0.4l-6.3,6.9V6.6c0-0.7-0.6-1.3-1.4-1.3
    c-0.7,0-1.3,0.6-1.3,1.3V30c0,0.7,0.5,1.2,1.1,1.3c0.4,0.1,0.9-0.1,1.2-0.4c0.3-0.3,0.4-0.6,0.4-1v-5.5l1.7-1.8l4.4,8
    c0.2,0.3,0.6,0.6,1,0.6c0.3,0.1,0.6,0,0.9-0.1c0.3-0.2,0.6-0.5,0.7-0.8c0.1-0.3,0.1-0.7-0.1-1l-4.9-8.9l4.7-5.2
    C53.9,14.8,53.8,13.9,53.3,13.4z"/>
  <!-- MY: BookMyShow icon (ticket + my letters) scaled to fit between book and show -->
  <g transform="translate(54.35, 0) scale(1.875)">
    <path fill="#FFFFFF" d="M5.338 16.595a.66.66 0 01-.554-.66v-8.07a.67.67 0 01.679-.672h5.901c.154 0 .308.015.458.04a2.622 2.622 0 012.19 2.576v6.126a.66.66 0 01-.204.478.684.684 0 01-.6.182.66.66 0 01-.553-.66V9.809a1.277 1.277 0 00-1.29-1.272h-1.287v7.398a.678.678 0 01-.806.66.66.66 0 01-.553-.66v-7.4H6.142v7.4a.66.66 0 01-.202.478.682.682 0 01-.602.182m9.812 3.517a.66.66 0 01-.555-.662c0-.183.07-.353.196-.478a.684.684 0 01.484-.193c.572 0 1.068-.365 1.232-.909l.701-2.307-2.294-7.576a.677.677 0 01.453-.847.695.695 0 01.84.444l1.705 5.65 1.724-5.647c.085-.318.43-.52.786-.459l.048.01a.68.68 0 01.458.85l-2.362 7.774-.746 2.489c-.193.571-.525 1.036-.957 1.349a2.678 2.678 0 01-1.588.522.664.664 0 01-.125-.011M24 7.172l-1.353-2.277-2.421 1.137-1.353-2.278-2.42 1.138-1.354-2.277-2.42 1.138-1.354-2.277-2.42 1.136L7.55.335 5.132 1.47 0 17.957l6.226 1.88a3.295 3.295 0 013.151-2.297c1.822 0 3.3 1.46 3.3 3.26l-.002.065c.015.295-.02.594-.11.887l6.331 1.914L24 7.17"/>
  </g>
  <!-- s -->
  <path fill="#FFFFFF" d="M107.4,22.3l-3.7-2.5c-0.5-0.4-0.9-1-0.9-1.6c0-0.7,0.2-1.3,0.7-1.7c0.5-0.5,1.2-0.7,1.8-0.5
    c0.7,0.1,1.2,0.5,1.5,1c0.2,0.3,0.6,0.6,1,0.6c0.3,0.1,0.6,0,0.9-0.2c0.3-0.2,0.5-0.5,0.6-0.8c0.1-0.3,0-0.7-0.1-1
    c-0.7-1.3-2-2.1-3.5-2.4c-1.5-0.2-3,0.3-4,1.3c-1.1,1-1.7,2.4-1.6,3.9c0.1,1.5,0.9,2.8,2.1,3.6l3.7,2.6c0.6,0.4,1,1,1,1.7
    c0.1,0.7-0.2,1.4-0.7,1.8c-0.6,0.5-1.3,0.7-2,0.6c-0.7-0.1-1.3-0.5-1.6-1.1c-0.2-0.3-0.6-0.6-0.9-0.6c-0.3-0.1-0.6,0-0.9,0.2
    c-0.3,0.2-0.5,0.5-0.6,0.8c-0.1,0.3-0.1,0.7,0.1,1c0.8,1.3,2.1,2.2,3.5,2.4l0.1,0c1.5,0.2,3-0.3,4.2-1.3c1.2-1,1.8-2.5,1.6-4
    C109.4,24.5,108.6,23.1,107.4,22.3z"/>
  <!-- h -->
  <path fill="#FFFFFF" d="M119.2,13.3c-0.3-0.1-0.6-0.1-0.9-0.1h-2.6V6.7c0-0.7-0.5-1.2-1.1-1.3c-0.4-0.1-0.9,0.1-1.2,0.4
    c-0.3,0.3-0.4,0.6-0.4,1v23.4c0,0.7,0.5,1.2,1.1,1.3c0.1,0,0.2,0,0.2,0c0.7,0,1.3-0.6,1.3-1.3V16h2.6c1.4,0,2.5,1.1,2.5,2.6V30
    c0,0.7,0.5,1.2,1.1,1.3c0.1,0,0.2,0,0.3,0c0.7,0,1.3-0.6,1.3-1.4l0-11.5C123.6,16,121.8,13.8,119.2,13.3z"/>
  <!-- o -->
  <path fill="#FFFFFF" d="M133.3,13.2c-0.3-0.1-0.6-0.1-0.9-0.1c-2.9,0-5.3,2.4-5.3,5.2v7.8c0,2.6,1.9,4.7,4.4,5.2
    c1.7,0.3,3.4-0.2,4.7-1.5c1-1,1.6-2.3,1.6-3.7v-7.8C137.7,15.8,135.9,13.6,133.3,13.2z M135,26.2c0,0.7-0.3,1.3-0.8,1.8
    c-0.6,0.6-1.5,0.9-2.3,0.7c-1.2-0.2-2.1-1.3-2.1-2.5v-7.8c0-0.7,0.3-1.3,0.8-1.8c0.6-0.6,1.4-0.9,2.3-0.7
    c1.2,0.2,2.1,1.3,2.1,2.5V26.2z"/>
  <!-- w -->
  <path fill="#FFFFFF" d="M158.5,13.8c-0.2-0.3-0.5-0.5-0.9-0.6c-0.7-0.1-1.4,0.3-1.6,1c-0.9,3.5-1.7,6.9-2.6,10.4l0,0.1
    l0-0.1c-1.1-4.4-2.6-10.3-2.6-10.3c-0.1-0.5-0.5-0.9-1-1c-0.7-0.1-1.4,0.3-1.5,1c0,0.1-1.5,5.9-2.6,10.4l0,0.1l0-0.1
    c-1.1-4.4-2.6-10.3-2.6-10.4c-0.2-0.7-0.9-1.1-1.6-1c-0.7,0.2-1.1,0.9-1,1.6l3.9,15.6c0.2,0.6,0.7,1,1.3,1c0.6,0,1.2-0.4,1.3-1
    c0-0.1,1.5-5.9,2.6-10.4l0-0.1l0,0.1c1.2,4.5,2.6,10.4,2.6,10.4c0.2,0.6,0.7,1,1.3,1c0.6,0,1.2-0.4,1.3-1l3.9-15.6
    C158.8,14.4,158.7,14.1,158.5,13.8z"/>
</svg>
