<svg width="1000" height="403" viewBox="0 0 1000 403" fill="none" xmlns="http://www.w3.org/2000/svg">
<path d="M406.116 169.998L398.392 278.577H279.616L271.897 225.625L350.959 238.661L358.064 202.67L268.464 187.312L262.003 152.053L292.656 82.444L385.486 82.4692L371.579 128.695L322.666 129.225L314.401 147.99L406.116 169.998Z" fill="#FFFFFF"/>
<path d="M847.716 82.444H746.747L742.545 278.577H877.019L865.371 221.688L799.837 227.367L783.735 137.377L832.219 129.225L847.716 82.444Z" fill="#FFFFFF"/>
<path d="M1000 278.576H896.532L885.742 0H944.108L944.07 229.044L986.522 213.838L1000 278.576Z" fill="#FFFFFF"/>
<path d="M258.727 278.576L241.198 150.74L203.87 149.218L203.453 278.577L258.727 278.576Z" fill="#FFFFFF"/>
<path d="M203.996 82.444H264.62L241.198 128.695L203.996 126.497V82.444Z" fill="#FFFFFF"/>
<path fill-rule="evenodd" clip-rule="evenodd" d="M182.74 98.7225L182.538 0H115.491L123.1 82.4433L0 96.4082L15.6066 278.589H183.169L182.753 98.7351L182.74 98.7225ZM62.8922 228.704L47.8971 144.919L128.905 129.224L139.039 223.542L62.9427 228.704H62.8922Z" fill="#FFFFFF"/>
<path d="M977.512 129.225H853.096L867.204 82.444L969.608 82.443L977.512 129.225Z" fill="#FFFFFF"/>
<path d="M542.756 278.576H432.372V0H490.738L479.923 229.044L529.278 213.838L542.756 278.576Z" fill="#FFFFFF"/>
<path d="M522.476 129.389L391.392 129.225L405.513 82.444H515.788L522.476 129.389Z" fill="#FFFFFF"/>
<path d="M718.315 278.614L719.867 150.627L682.248 150.778L664.72 278.614H718.341H718.303H718.315Z" fill="#FFFFFF"/>
<path d="M719.867 129.477H686.514L669.331 82.4439L722.993 82.443L719.867 129.477Z" fill="#FFFFFF"/>
<path d="M599.548 170.288L628.472 278.702H562.808L533.008 82.4692L579.349 82.443L589.987 125.917L618.89 82.443H639.119L661.594 132.038L599.548 170.288Z" fill="#FFFFFF"/>
<path fill-rule="evenodd" clip-rule="evenodd" d="M458.441 400.576C462.275 402.076 466.498 402.826 471.109 402.826C475.666 402.826 479.833 402.076 483.611 400.576C487.445 399.076 490.778 396.964 493.612 394.242C496.446 391.519 498.613 388.297 500.113 384.574C501.668 380.851 502.446 376.768 502.446 372.323C502.446 367.933 501.668 363.905 500.113 360.238C498.613 356.515 496.446 353.293 493.612 350.57C490.778 347.848 487.445 345.736 483.611 344.236C479.833 342.736 475.638 341.986 471.026 341.986C466.47 341.986 462.275 342.736 458.441 344.236C454.608 345.736 451.274 347.848 448.44 350.57C445.606 353.293 443.412 356.515 441.856 360.238C440.356 363.905 439.606 367.961 439.606 372.406C439.606 376.795 440.356 380.851 441.856 384.574C443.412 388.297 445.606 391.519 448.44 394.242C451.274 396.964 454.608 399.076 458.441 400.576ZM476.193 385.158C474.638 385.824 472.915 386.158 471.026 386.158C469.137 386.158 467.387 385.824 465.776 385.158C464.22 384.491 462.831 383.546 461.608 382.324C460.442 381.046 459.525 379.573 458.858 377.907C458.247 376.24 457.941 374.406 457.941 372.406C457.941 370.406 458.247 368.572 458.858 366.905C459.525 365.239 460.442 363.794 461.608 362.572C462.831 361.294 464.22 360.321 465.776 359.655C467.387 358.988 469.137 358.654 471.026 358.654C472.915 358.654 474.638 358.988 476.193 359.655C477.805 360.321 479.194 361.294 480.36 362.572C481.583 363.794 482.5 365.239 483.111 366.905C483.778 368.572 484.111 370.406 484.111 372.406C484.111 374.406 483.778 376.24 483.111 377.907C482.5 379.573 481.583 381.046 480.36 382.324C479.194 383.546 477.805 384.491 476.193 385.158Z" fill="#FFFFFF"/>
<path fill-rule="evenodd" clip-rule="evenodd" d="M187.305 343.653V401.993H214.975C218.03 401.993 220.864 401.632 223.476 400.909C226.143 400.187 228.476 399.076 230.476 397.576C232.532 396.075 234.116 394.214 235.227 391.992C236.338 389.714 236.894 387.047 236.894 383.991C236.894 381.49 236.366 379.268 235.31 377.323C234.255 375.379 232.782 373.74 230.893 372.406C229.667 371.504 228.3 370.766 226.792 370.193C228.725 369.329 230.259 368.067 231.393 366.405C233.004 364.127 233.81 361.238 233.81 357.738C233.81 354.904 233.032 352.431 231.476 350.32C229.976 348.209 227.754 346.57 224.809 345.403C221.92 344.236 218.364 343.653 214.141 343.653H187.305ZM214.474 387.824H203.973V378.49H214.058C215.225 378.49 216.197 378.685 216.975 379.073C217.753 379.407 218.336 379.907 218.725 380.574C219.169 381.185 219.392 381.963 219.392 382.907C219.392 383.963 219.197 384.88 218.808 385.658C218.419 386.38 217.864 386.935 217.141 387.324C216.419 387.658 215.53 387.824 214.474 387.824ZM211.057 366.489H203.973V357.821H210.891C212.891 357.821 214.308 358.238 215.141 359.071C216.03 359.849 216.475 360.877 216.475 362.155C216.475 363.099 216.28 363.905 215.891 364.572C215.558 365.183 214.975 365.655 214.141 365.989C213.363 366.322 212.335 366.489 211.057 366.489Z" fill="#FFFFFF"/>
<path d="M272.515 376.165V401.993H290.684V376.011L312.019 343.653H292.517L281.548 360.923L269.515 343.653H249.512L272.515 376.165Z" fill="#FFFFFF"/>
<path d="M370.324 401.993V390.408L393.49 359.821H372.491V343.653H417.829V355.154L394.027 386.824H418.746V401.993H370.324Z" fill="#FFFFFF"/>
<path d="M525.364 401.993V343.653H540.866L555.845 368.03L571.036 343.653H586.038V401.993H568.703V388.074C568.703 383.074 568.814 378.573 569.036 374.573C569.075 374.007 569.118 373.441 569.164 372.875L558.285 389.741H552.784L542.216 373.062L542.261 373.772L542.283 374.156C542.561 378.046 542.7 382.685 542.7 388.074V401.993H525.364Z" fill="#FFFFFF"/>
<path fill-rule="evenodd" clip-rule="evenodd" d="M627.351 343.653L603.931 401.993H621.433L624.606 393.325H643.764L646.936 401.993H664.772L641.519 343.653H627.351ZM639.28 381.074L637.602 376.49C636.991 374.767 636.463 373.295 636.018 372.073C635.574 370.85 635.185 369.711 634.852 368.656L634.653 367.989L634.433 367.23L634.261 366.629C634.051 367.324 633.831 368 633.601 368.656C633.268 369.711 632.851 370.85 632.351 372.073C631.907 373.295 631.379 374.767 630.768 376.49L629.09 381.074H639.28Z" fill="#FFFFFF"/>
<path d="M692.41 401.993V358.988H674.408V343.653H728.914V358.988H710.412V401.993H692.41Z" fill="#FFFFFF"/>
<path fill-rule="evenodd" clip-rule="evenodd" d="M763.968 400.576C767.802 402.076 772.025 402.826 776.636 402.826C781.192 402.826 785.359 402.076 789.138 400.576C792.971 399.076 796.305 396.964 799.139 394.242C801.972 391.519 804.139 388.297 805.639 384.574C807.195 380.851 807.973 376.768 807.973 372.323C807.973 367.933 807.195 363.905 805.639 360.238C804.139 356.515 801.972 353.293 799.139 350.57C796.305 347.848 792.971 345.736 789.138 344.236C785.359 342.736 781.164 341.986 776.553 341.986C771.997 341.986 767.802 342.736 763.968 344.236C760.134 345.736 756.801 347.848 753.967 350.57C751.133 353.293 748.938 356.515 747.383 360.238C745.883 363.905 745.132 367.961 745.132 372.406C745.132 376.795 745.883 380.851 747.383 384.574C748.938 388.297 751.133 391.519 753.967 394.242C756.801 396.964 760.134 399.076 763.968 400.576ZM781.72 385.158C780.164 385.824 778.442 386.158 776.553 386.158C774.664 386.158 772.914 385.824 771.302 385.158C769.746 384.491 768.357 383.546 767.135 382.324C765.968 381.046 765.051 379.573 764.385 377.907C763.774 376.24 763.468 374.406 763.468 372.406C763.468 370.406 763.774 368.572 764.385 366.905C765.051 365.239 765.968 363.794 767.135 362.572C768.357 361.294 769.746 360.321 771.302 359.655C772.914 358.988 774.664 358.654 776.553 358.654C778.442 358.654 780.164 358.988 781.72 359.655C783.331 360.321 784.72 361.294 785.887 362.572C787.11 363.794 788.026 365.239 788.638 366.905C789.304 368.572 789.638 370.406 789.638 372.406C789.638 374.406 789.304 376.24 788.638 377.907C788.026 379.573 787.11 381.046 785.887 382.324C784.72 383.546 783.331 384.491 781.72 385.158Z" fill="#FFFFFF"/>
</svg>
